<?xml version="1.0" encoding="utf-8"?>
<!-- Generator: Adobe Illustrator 20.1.0, SVG Export Plug-In . SVG Version: 6.00 Build 0)  -->
<svg version="1.1" id="Layer_1" xmlns="http://www.w3.org/2000/svg" xmlns:xlink="http://www.w3.org/1999/xlink" x="0px" y="0px"
	 viewBox="0 0 1024 772.8" style="enable-background:new 0 0 1024 772.8;" xml:space="preserve">
<style type="text/css">
	.st0{fill:#231F20;}
	.st1{fill:#FFFFFF;}
	.st2{opacity:0.3;}
	.st3{fill:none;}
	.st4{fill:#EC1C24;}
</style>
<title>bg_1024x768_starWC</title>
<path class="st0" d="M505.8,45.6c0-0.6,0.2-1.1,0.6-1.5c0.4-0.4,1-0.6,1.5-0.6c0.6,0,1.1,0.2,1.5,0.6c0.4,0.4,0.7,0.9,0.7,1.5
	c0,0.6-0.2,1.1-0.6,1.5c-0.4,0.4-1,0.6-1.5,0.6c-0.3,0-0.6-0.1-0.8-0.2c-0.3-0.1-0.5-0.3-0.7-0.4c-0.2-0.2-0.4-0.4-0.5-0.7
	C505.8,46.2,505.7,45.9,505.8,45.6z M509.6,41.5h-3.3V28.1h3.3V41.5z"/>
<path class="st1" d="M507.2,84.5h2.8v7.3h-2.8L507.2,84.5z M512,84.5h2.8v7.3H512L512,84.5z"/>
<path class="st0" d="M507.6,154.6h-2.5v-2.3h2.8l0.5-3.4H506v-2.3h2.8l0.8-5.7h2.4l-0.8,5.7h2.8l0.8-5.7h2.4l-0.8,5.7h2.5v2.3H516
	l-0.5,3.4h2.5v2.3h-2.7l-0.8,5.7H512l0.8-5.7H510l-0.8,5.7h-2.4L507.6,154.6z M510.8,149l-0.5,3.4h2.8l0.5-3.4H510.8z"/>
<path class="st1" d="M512.6,197h0.2c1,0,1.9,0.2,2.9,0.5c0.9,0.3,1.8,0.8,2.5,1.4l-2.3,2.6c-0.4-0.5-0.9-0.8-1.5-1.1
	c-0.6-0.3-1.2-0.4-1.8-0.4v5.5h0.1c0.8,0.2,1.5,0.4,2.3,0.7c0.7,0.2,1.4,0.6,2,1c0.6,0.4,1.1,0.9,1.4,1.6c0.4,0.7,0.6,1.5,0.5,2.3
	c0,0.8-0.1,1.7-0.5,2.4c-0.3,0.7-0.8,1.3-1.3,1.8c-0.6,0.5-1.3,0.9-2,1.2c-0.8,0.3-1.6,0.5-2.5,0.6v2h-1.5v-1.9
	c-1.2,0-2.4-0.2-3.5-0.6c-1.1-0.4-2.1-1-2.9-1.9l2.5-2.6c0.4,0.6,1,1.1,1.7,1.4c0.7,0.3,1.4,0.5,2.2,0.6v-5.8H511
	c-0.8-0.2-1.5-0.5-2.2-0.7c-0.7-0.2-1.3-0.6-1.9-1c-0.5-0.4-1-1-1.3-1.6c-0.3-0.7-0.5-1.5-0.5-2.3c0-0.8,0.2-1.5,0.5-2.2
	c0.3-0.7,0.8-1.3,1.3-1.8c0.6-0.5,1.2-0.9,1.9-1.2c0.7-0.3,1.5-0.5,2.2-0.6v-1.8h1.5L512.6,197z M511.1,200
	c-0.6,0.1-1.2,0.4-1.7,0.8c-0.5,0.4-0.8,1-0.8,1.7c0,0.3,0.1,0.7,0.2,1c0.1,0.3,0.3,0.5,0.5,0.7c0.2,0.2,0.5,0.3,0.8,0.4l1,0.4
	L511.1,200z M512.6,214.1c0.4-0.1,0.7-0.2,1.1-0.3c0.3-0.1,0.6-0.3,0.9-0.6c0.3-0.2,0.5-0.5,0.6-0.8c0.2-0.3,0.2-0.7,0.2-1.1
	c0-0.4-0.1-0.7-0.3-1c-0.2-0.3-0.4-0.5-0.7-0.7c-0.3-0.2-0.6-0.3-0.9-0.5l-1-0.4L512.6,214.1z"/>
<path class="st0" d="M504.7,258.6c0-0.7,0.1-1.4,0.4-2c0.5-1.2,1.5-2.2,2.7-2.7c1.3-0.5,2.7-0.5,4,0c1.2,0.5,2.2,1.5,2.7,2.7
	c0.5,1.3,0.5,2.7,0,4c-0.5,1.2-1.5,2.2-2.7,2.7c-1.3,0.5-2.7,0.5-4,0c-1.2-0.5-2.2-1.5-2.7-2.7C504.8,259.9,504.7,259.3,504.7,258.6
	z M512.3,258.6c0-1.3-1.1-2.4-2.5-2.4c-1.3,0-2.4,1.1-2.4,2.5c0,1.3,1.1,2.4,2.5,2.4c0.6,0,1.2-0.3,1.7-0.7
	C512,259.9,512.3,259.2,512.3,258.6L512.3,258.6z M520.9,252.9l2.3,1l-11.4,20.1l-2.3-1L520.9,252.9z M517.7,268.5
	c0-0.7,0.1-1.4,0.4-2c0.5-1.2,1.5-2.2,2.7-2.7c1.3-0.5,2.7-0.5,4,0c1.2,0.5,2.2,1.5,2.7,2.7c0.5,1.3,0.5,2.7,0,4
	c-0.5,1.2-1.5,2.2-2.7,2.7c-1.3,0.5-2.7,0.5-4,0c-1.2-0.5-2.2-1.5-2.7-2.7C517.9,269.8,517.7,269.1,517.7,268.5L517.7,268.5z
	 M525.3,268.5c0-1.3-1.1-2.4-2.5-2.4c-1.3,0-2.4,1.1-2.4,2.5c0,1.3,1.1,2.4,2.5,2.4c0.6,0,1.2-0.3,1.7-0.7
	C525.1,269.7,525.3,269.1,525.3,268.5L525.3,268.5z"/>
<path class="st1" d="M519.6,325.1l4.2,4.6h-4.2l-2.1-2.2c-0.7,0.9-1.5,1.6-2.5,2.1c-1,0.5-2.1,0.7-3.2,0.7c-0.8,0-1.7-0.1-2.5-0.4
	c-0.8-0.2-1.5-0.6-2.1-1.1c-0.6-0.5-1.1-1.1-1.5-1.8c-0.4-0.8-0.6-1.6-0.5-2.5c0-0.6,0.1-1.2,0.3-1.8c0.2-0.6,0.5-1.1,0.9-1.5
	c0.4-0.5,0.8-0.9,1.3-1.2c0.5-0.4,1.1-0.6,1.6-0.9c-0.3-0.3-0.6-0.7-0.9-1c-0.3-0.3-0.5-0.6-0.7-1c-0.2-0.4-0.4-0.7-0.5-1.1
	c-0.3-1.1-0.2-2.3,0.3-3.4c0.3-0.6,0.7-1.1,1.2-1.5c0.5-0.4,1.1-0.7,1.8-0.9c0.7-0.2,1.4-0.3,2.1-0.3c0.7,0,1.4,0.1,2.1,0.3
	c0.6,0.2,1.2,0.5,1.7,0.8c0.5,0.4,0.9,0.9,1.2,1.4c0.3,0.6,0.5,1.3,0.5,2.1c0,0.6-0.1,1.1-0.3,1.7c-0.2,0.5-0.5,1-0.9,1.4
	c-0.4,0.4-0.8,0.8-1.2,1.1c-0.4,0.3-0.9,0.6-1.4,0.9l3.1,3.4l2.2-3.3h3.9L519.6,325.1z M511.5,320.9c-0.3,0.2-0.7,0.4-1,0.6
	c-0.3,0.2-0.6,0.4-0.9,0.7c-0.3,0.3-0.5,0.6-0.6,0.9c-0.2,0.4-0.2,0.7-0.2,1.1c0,0.4,0.1,0.8,0.2,1.2c0.2,0.4,0.4,0.7,0.7,0.9
	c0.3,0.3,0.6,0.5,1,0.6c0.4,0.1,0.8,0.2,1.2,0.2c0.7,0,1.4-0.2,2-0.6c0.6-0.4,1.1-0.8,1.6-1.3L511.5,320.9z M512.8,312.7
	c-0.6,0-1.2,0.2-1.6,0.5c-0.4,0.3-0.7,0.9-0.7,1.4c0,0.3,0.1,0.5,0.2,0.8c0.1,0.3,0.3,0.5,0.4,0.7c0.2,0.2,0.4,0.5,0.6,0.7
	c0.2,0.2,0.4,0.4,0.6,0.6c0.3-0.1,0.6-0.3,0.9-0.5c0.3-0.2,0.6-0.4,0.9-0.7c0.3-0.2,0.5-0.5,0.6-0.8c0.2-0.3,0.3-0.7,0.2-1
	c0-0.5-0.2-1-0.6-1.3C513.9,312.8,513.3,312.7,512.8,312.7L512.8,312.7z"/>
<path class="st0" d="M506.5,366.6h2.8v7.2h-2.8V366.6z"/>
<g class="st2">
	<path class="st3" d="M1027.2,772.9V654.1c-18.6,42.3-42.4,82.2-70.7,118.7H1027.2z"/>
	<path class="st3" d="M147.1,0H-3.2v202.3C31,124.4,82.4,55.3,147.1,0z"/>
	<path class="st3" d="M-3.2,772.9h70.7c-28.4-36.5-52.1-76.4-70.7-118.7V772.9z"/>
	<path class="st0" d="M187.6,0h-40.5C82.4,55.3,31,124.4-3.2,202.3v74C29.4,166.2,96.2,69.4,187.6,0z"/>
	<path class="st0" d="M-3.2,654.1c18.6,42.3,42.4,82.2,70.7,118.7h32.7C52.8,716.4,17.6,650.8-3.2,580.2V654.1z"/>
	<path class="st0" d="M956.5,772.9c28.4-36.5,52.1-76.4,70.7-118.7v-74c-20.9,70.6-56.1,136.2-103.4,192.7H956.5z"/>
	<path class="st0" d="M876.9,0h-40.5c91.4,69.4,158.2,166.2,190.9,276.2v-73.9C993,124.4,941.6,55.3,876.9,0z"/>
	<path class="st1" d="M836.4,0H730.8c155.3,79.8,261.8,241.8,261.8,428.2c0,135-55.9,257.2-145.7,344.7h77
		c47.3-56.5,82.5-122.1,103.4-192.7V276.3C994.6,166.2,927.8,69.4,836.4,0z"/>
	<path class="st1" d="M31.4,428.2C31.4,241.8,137.9,79.8,293.2,0H187.6C96.2,69.4,29.4,166.2-3.2,276.2v303.9
		c20.9,70.7,56.1,136.3,103.4,192.7h77C87.3,685.4,31.4,563.2,31.4,428.2z"/>
	<path class="st4" d="M992.6,428.2C992.6,241.8,886.1,79.8,730.8,0H293.2C137.9,79.8,31.4,241.8,31.4,428.2
		c0,135,55.9,257.2,145.7,344.7h87.7C157.8,695.8,88,570,88,428.2C88,194.2,278.2,3.8,512,3.8s424,190.4,424,424.4
		c0,141.8-69.8,267.6-176.9,344.7h87.7C936.7,685.4,992.6,563.2,992.6,428.2z"/>
	<path class="st1" d="M936,428.2c0-234-190.2-424.4-424-424.4S88,194.2,88,428.2c0,141.8,69.8,267.6,176.9,344.7h118.8
		c-139.5-52.2-239.1-187-239.1-344.7c0-202.8,164.9-367.8,367.5-367.8s367.5,165,367.5,367.8c0,157.7-99.6,292.5-239.1,344.7h118.8
		C866.2,695.8,936,570,936,428.2z"/>
	<path class="st4" d="M879.5,428.2c0-202.8-164.9-367.8-367.5-367.8s-367.5,165-367.5,367.8c0,157.7,99.6,292.5,239.1,344.7h256.7
		C779.9,720.7,879.5,585.9,879.5,428.2z M512,739.4c-171.5,0-311-139.7-311-311.2S340.5,117,512,117s311,139.6,311,311.2
		S683.5,739.4,512,739.4z"/>
	<path class="st1" d="M512,117c-171.5,0-311,139.6-311,311.2s139.5,311.2,311,311.2s311-139.7,311-311.2S683.5,117,512,117z
		 M512,682.8c-140.3,0-254.4-114.2-254.4-254.6S371.7,173.6,512,173.6s254.4,114.2,254.4,254.6S652.3,682.8,512,682.8z"/>
	<path class="st4" d="M512,173.6c-140.3,0-254.4,114.2-254.4,254.6S371.7,682.8,512,682.8s254.4-114.2,254.4-254.6
		S652.3,173.6,512,173.6z M512,626.3c-109.1,0-197.9-88.8-197.9-198.1S402.9,230.1,512,230.1S709.9,319,709.9,428.2
		S621.1,626.3,512,626.3z"/>
	<path class="st1" d="M512,230.1c-109.1,0-197.9,88.8-197.9,198.1S402.9,626.3,512,626.3s197.9-88.9,197.9-198.1
		S621.1,230.1,512,230.1z M512,569.7c-77.9,0-141.3-63.5-141.3-141.5S434.1,286.7,512,286.7s141.3,63.5,141.3,141.5
		S589.9,569.7,512,569.7z"/>
	<path class="st4" d="M512,286.7c-77.9,0-141.3,63.5-141.3,141.5S434.1,569.7,512,569.7s141.3-63.5,141.3-141.5
		S589.9,286.7,512,286.7z M512,513.1c-46.9,0-84.9-37.9-85-84.8c0-46.9,37.9-84.9,84.8-85s84.9,37.9,85,84.8c0,0,0,0.1,0,0.1
		C596.8,475,558.8,513,512,513.1L512,513.1z"/>
	<path class="st1" d="M512,343.3c-46.9,0-84.9,37.9-85,84.8c0,46.9,37.9,84.9,84.8,85s84.9-37.9,85-84.8c0,0,0-0.1,0-0.1
		C596.8,381.4,558.8,343.4,512,343.3z M512,456.5c-15.6,0-28.3-12.6-28.3-28.3c0-15.6,12.6-28.3,28.3-28.3
		c15.6,0,28.3,12.6,28.3,28.3c0,0,0,0,0,0C540.3,443.8,527.6,456.5,512,456.5C512,456.5,512,456.5,512,456.5z"/>
	<ellipse class="st4" cx="512" cy="428.2" rx="28.3" ry="28.3"/>
</g>
<polygon class="st1" points="512,0 607.3,293.3 915.7,293.3 666.2,474.6 761.5,767.9 512,586.7 262.5,767.9 357.8,474.6 
	108.3,293.3 416.7,293.3 "/>
</svg>
