<?xml version="1.0" encoding="utf-8"?>
<!-- Generator: Adobe Illustrator 20.1.0, SVG Export Plug-In . SVG Version: 6.00 Build 0)  -->
<svg version="1.1" id="Layer_1" xmlns="http://www.w3.org/2000/svg" xmlns:xlink="http://www.w3.org/1999/xlink" x="0px" y="0px"
	 viewBox="0 0 1024 772.8" style="enable-background:new 0 0 1024 772.8;" xml:space="preserve">
<style type="text/css">
	.st0{opacity:0.3;}
	.st1{fill:none;}
	.st2{fill:#231F20;}
	.st3{fill:#FFFFFF;}
	.st4{fill:#EC1C24;}
	.st5{opacity:0.7;}
</style>
<title>bg_1024x768_starWC</title>
<g class="st0">
	<path class="st1" d="M1024,768V650c-18.5,42.1-42.1,81.7-70.3,118H1024z"/>
	<path class="st1" d="M149.4,0H0v201C34.1,123.6,85.1,54.9,149.4,0z"/>
	<path class="st1" d="M0,768h70.3C42.1,731.7,18.5,692.1,0,650V768z"/>
	<path class="st2" d="M189.7,0h-40.2C85.1,54.9,34.1,123.6,0,201v73.5C32.4,165.1,98.8,69,189.7,0z"/>
	<path class="st2" d="M0,650c18.5,42.1,42.1,81.7,70.3,118h32.5c-47-56.1-82-121.3-102.7-191.5V650H0z"/>
	<path class="st2" d="M953.7,768c28.2-36.3,51.8-75.9,70.3-118v-73.5c-20.7,70.2-55.7,135.4-102.7,191.5H953.7z"/>
	<path class="st2" d="M874.6,0h-40.2c90.8,69,157.2,165.1,189.7,274.5V201C989.9,123.6,938.9,54.9,874.6,0z"/>
	<path class="st3" d="M834.3,0H729.4c154.3,79.3,260.1,240.3,260.1,425.5c0,134.2-55.5,255.6-144.8,342.5h76.5
		c47-56.1,82-121.3,102.7-191.5v-302C991.6,165.2,925.2,69,834.3,0z"/>
	<path class="st3" d="M34.5,425.5C34.5,240.3,140.3,79.3,294.6,0H189.7C98.8,69,32.4,165.1,0,274.5v302
		C20.7,646.7,55.7,711.9,102.7,768h76.5C90,681.1,34.5,559.7,34.5,425.5z"/>
	<path class="st4" d="M989.5,425.5C989.5,240.3,883.7,79.3,729.4,0H294.6C140.3,79.3,34.5,240.3,34.5,425.5
		C34.5,559.7,90,681.1,179.3,768h87.2C160,691.4,90.6,566.4,90.6,425.5C90.6,193,279.7,3.8,512,3.8S933.4,193,933.4,425.5
		c0,140.9-69.4,265.9-175.8,342.5h87.2C934,681.1,989.5,559.7,989.5,425.5z"/>
	<path class="st3" d="M933.4,425.5C933.4,193,744.4,3.8,512,3.8S90.6,193,90.6,425.5c0,140.9,69.4,265.9,175.8,342.5h118
		c-138.7-51.9-237.6-185.8-237.6-342.5C146.8,224,310.6,60,512,60s365.2,164,365.2,365.5c0,156.7-99,290.6-237.6,342.5h118.1
		C864,691.4,933.4,566.4,933.4,425.5z"/>
	<path class="st4" d="M877.2,425.5C877.2,224,713.4,60,512,60S146.8,224,146.8,425.5c0,156.7,99,290.6,237.6,342.5h255.1
		C778.2,716.1,877.2,582.1,877.2,425.5z M512,734.8c-170.4,0-309-138.8-309-309.3s138.6-309.3,309-309.3S821,255,821,425.5
		S682.4,734.8,512,734.8z"/>
	<path class="st3" d="M512,116.2c-170.4,0-309,138.8-309,309.3s138.6,309.3,309,309.3S821,596,821,425.5S682.4,116.2,512,116.2z
		 M512,678.5c-139.4,0-252.8-113.5-252.8-253s113.4-253,252.8-253s252.8,113.5,252.8,253S651.4,678.5,512,678.5z"/>
	<path class="st4" d="M512,172.4c-139.4,0-252.8,113.5-252.8,253s113.4,253,252.8,253s252.8-113.5,252.8-253S651.4,172.4,512,172.4z
		 M512,622.3c-108.4,0-196.6-88.3-196.6-196.8S403.6,228.7,512,228.7S708.6,317,708.6,425.5S620.4,622.3,512,622.3z"/>
	<path class="st3" d="M512,228.7c-108.4,0-196.6,88.3-196.6,196.8S403.6,622.3,512,622.3S708.6,534,708.6,425.5
		S620.4,228.7,512,228.7z M512,566.1c-77.5,0-140.5-63.1-140.5-140.6s63-140.6,140.5-140.6S652.5,348,652.5,425.5
		S589.4,566.1,512,566.1z"/>
	<path class="st4" d="M512,284.9c-77.5,0-140.5,63.1-140.5,140.6s63,140.6,140.5,140.6S652.5,503,652.5,425.5S589.4,284.9,512,284.9
		z M512,509.8c-46.6,0-84.4-37.7-84.4-84.3s37.7-84.4,84.3-84.4s84.4,37.7,84.4,84.3v0.1C596.2,472,558.5,509.8,512,509.8L512,509.8
		z"/>
	<path class="st3" d="M512,341.1c-46.6,0-84.4,37.7-84.4,84.3s37.7,84.4,84.3,84.4s84.4-37.7,84.4-84.3v-0.1
		C596.2,378.9,558.5,341.2,512,341.1z M512,453.6c-15.5,0-28.1-12.6-28.1-28.1s12.6-28.1,28.1-28.1s28.1,12.6,28.1,28.1l0,0
		C540.1,441,527.5,453.6,512,453.6L512,453.6z"/>
	<ellipse class="st4" cx="512" cy="425.5" rx="28.1" ry="28.1"/>
</g>
<g class="st5">
	<polygon points="-0.1,128 -0.1,520.4 110,600.4 55.6,768 968.2,768 913.8,600.4 1023.9,520.4 1023.9,128 760.3,128 718.7,0 
		305.1,0 263.5,128 	"/>
</g>
</svg>
