<svg id="Layer_1" data-name="Layer 1" xmlns="http://www.w3.org/2000/svg" viewBox="0 0 1120 1120"><defs><style>.cls-1{fill:#231f20;}.cls-2{fill:#fff;}.cls-3{fill:#ec1c24;}</style></defs><title>bg_1120x1120_target</title><path class="cls-1" d="M560,1120C251.21,1120,0,868.78,0,560S251.21,0,560,0s560,251.21,560,560S868.78,1120,560,1120Z" transform="translate(0 0)"/><path class="cls-2" d="M560,1094.67C265.18,1094.67,25.32,854.82,25.32,560S265.18,25.33,560,25.33,1094.68,265.18,1094.68,560,854.82,1094.67,560,1094.67Z" transform="translate(0 0)"/><path class="cls-3" d="M560,1038.39C296.21,1038.39,81.61,823.79,81.61,560S296.21,81.61,560,81.61,1038.39,296.21,1038.39,560,823.79,1038.39,560,1038.39Z" transform="translate(0 0)"/><path class="cls-2" d="M560,982.11c-232.75,0-422.11-189.36-422.11-422.11S327.25,137.89,560,137.89,982.11,327.25,982.11,560,792.75,982.11,560,982.11Z" transform="translate(0 0)"/><path class="cls-3" d="M560,925.83c-201.72,0-365.83-164.11-365.83-365.83S358.28,194.17,560,194.17,925.83,358.28,925.83,560,761.72,925.83,560,925.83Z" transform="translate(0 0)"/><path class="cls-2" d="M560,869.55c-170.69,0-309.55-138.86-309.55-309.55S389.31,250.45,560,250.45,869.55,389.31,869.55,560,730.69,869.55,560,869.55Z" transform="translate(0 0)"/><path class="cls-3" d="M560,813.27c-139.65,0-253.27-113.62-253.27-253.27S420.35,306.73,560,306.73,813.27,420.35,813.27,560,699.65,813.27,560,813.27Z" transform="translate(0 0)"/><path class="cls-2" d="M560,757c-108.62,0-197-88.37-197-197s88.37-197,197-197,197,88.37,197,197S668.62,757,560,757Z" transform="translate(0 0)"/><path class="cls-3" d="M560,700.7c-77.58,0-140.7-63.12-140.7-140.7S482.42,419.3,560,419.3,700.7,482.41,700.7,560,637.58,700.7,560,700.7Z" transform="translate(0 0)"/><path class="cls-2" d="M560,644.42A84.42,84.42,0,1,1,644.42,560,84.52,84.52,0,0,1,560,644.42Z" transform="translate(0 0)"/><circle class="cls-3" cx="560" cy="560" r="28.14"/><path class="cls-1" d="M559.23,48.31l-3.65,3.38-1.92-2.28,5.88-4.89h3V64h-3.3Z" transform="translate(0 0)"/><path class="cls-2" d="M553.49,116.94l7.55-7.31.69-.7a6.61,6.61,0,0,0,.65-.78,4.73,4.73,0,0,0,.48-.87,2.41,2.41,0,0,0,.19-.95,2.37,2.37,0,0,0-.23-1.07,2.53,2.53,0,0,0-.62-.8,2.78,2.78,0,0,0-.89-.51,3.26,3.26,0,0,0-1.08-.18,2.93,2.93,0,0,0-2,.71,3,3,0,0,0-1,1.92l-3.46-.27a6.17,6.17,0,0,1,.65-2.38,5.33,5.33,0,0,1,1.39-1.72,6,6,0,0,1,2-1,8,8,0,0,1,2.45-.36,8.49,8.49,0,0,1,2.46.34,5.94,5.94,0,0,1,2,1,4.73,4.73,0,0,1,1.35,1.72,5.66,5.66,0,0,1,.49,2.44,5.84,5.84,0,0,1-.84,3.17,12.46,12.46,0,0,1-2.16,2.54l-6,5.58h9v3h-13Z" transform="translate(0 0)"/><path class="cls-1" d="M558,165.28h.85a11.46,11.46,0,0,0,1.39-.08,3.58,3.58,0,0,0,1.21-.36,2.19,2.19,0,0,0,.87-.8,2.6,2.6,0,0,0,.33-1.4,2.4,2.4,0,0,0-.77-1.84,2.83,2.83,0,0,0-2-.71,3,3,0,0,0-1.77.56,3.18,3.18,0,0,0-1.14,1.58l-3.49-.93a6,6,0,0,1,.93-1.87,5.24,5.24,0,0,1,1.43-1.3,6.39,6.39,0,0,1,1.81-.76,8.77,8.77,0,0,1,4.45.08,6.06,6.06,0,0,1,2,1A4.78,4.78,0,0,1,565.4,160a4.84,4.84,0,0,1,.51,2.27,4.66,4.66,0,0,1-.88,2.79,4.1,4.1,0,0,1-2.45,1.61v.06a4.06,4.06,0,0,1,2.83,1.59,5.17,5.17,0,0,1,1,3.13,5.45,5.45,0,0,1-.54,2.47,5.34,5.34,0,0,1-1.44,1.8,6.3,6.3,0,0,1-2.1,1.1,8.34,8.34,0,0,1-2.49.37,9.63,9.63,0,0,1-2.28-.26,6.42,6.42,0,0,1-1.94-.81,5.48,5.48,0,0,1-1.5-1.41,6.28,6.28,0,0,1-1-2.07l3.52-.93a3.49,3.49,0,0,0,1.07,1.87,3.1,3.1,0,0,0,2.09.66,3.55,3.55,0,0,0,1.25-.22,3.3,3.3,0,0,0,1-.62,2.87,2.87,0,0,0,.71-1,2.94,2.94,0,0,0,.26-1.25,2.54,2.54,0,0,0-1.41-2.43,4.39,4.39,0,0,0-1.39-.43,10.68,10.68,0,0,0-1.51-.11H558Z" transform="translate(0 0)"/><path class="cls-2" d="M561.07,229.41H552.8v-3.27l7.83-12.22h3.74v12.52h2.83v3h-2.83v4h-3.3Zm0-10.82H561l-4.86,7.86h4.92Z" transform="translate(0 0)"/><path class="cls-1" d="M565.74,273.35h-7.83l-.08,3.87a4.07,4.07,0,0,1,1-.19q.59-.05,1.11-.05a7.35,7.35,0,0,1,2.62.45,5.72,5.72,0,0,1,2,1.3,6.07,6.07,0,0,1,1.33,2,7,7,0,0,1,.48,2.66,7.09,7.09,0,0,1-.54,2.82,6.06,6.06,0,0,1-1.48,2.11,6.63,6.63,0,0,1-2.24,1.33,8.1,8.1,0,0,1-2.77.47,6.94,6.94,0,0,1-4-1.1,5.94,5.94,0,0,1-2.32-3.35l3.46-.93a3.22,3.22,0,0,0,1.13,1.65,3.31,3.31,0,0,0,2.06.6,3.63,3.63,0,0,0,1.36-.25,3.15,3.15,0,0,0,1.77-1.76,3.45,3.45,0,0,0,.25-1.32,3.72,3.72,0,0,0-.37-1.73,3.27,3.27,0,0,0-1-1.17,4.24,4.24,0,0,0-1.46-.66,7.11,7.11,0,0,0-1.73-.21,9.34,9.34,0,0,0-2.13.25,8.82,8.82,0,0,0-1.94.69l.19-10.49h11.07Z" transform="translate(0 0)"/><path class="cls-2" d="M563.87,326.85,559.2,334l.06.05a2.56,2.56,0,0,1,.81-.25,6.27,6.27,0,0,1,1-.08,5.56,5.56,0,0,1,2.36.49,5.78,5.78,0,0,1,1.85,1.35,6.07,6.07,0,0,1,1.21,2,6.7,6.7,0,0,1,.43,2.39,7,7,0,0,1-.52,2.75,6.11,6.11,0,0,1-1.44,2.1,6.35,6.35,0,0,1-2.2,1.33,8,8,0,0,1-2.76.47,8.25,8.25,0,0,1-2.8-.45,6.31,6.31,0,0,1-2.18-1.3,5.8,5.8,0,0,1-1.43-2.09,7.22,7.22,0,0,1-.51-2.77,7.33,7.33,0,0,1,.51-2.79,17.13,17.13,0,0,1,1.3-2.54l5-7.83Zm-7.33,13.1a3.54,3.54,0,1,0,6.06-2.51,3.55,3.55,0,0,0-5.78,1.13A3.5,3.5,0,0,0,556.54,339.95Z" transform="translate(0 0)"/><path class="cls-1" d="M553,383.31h13.21v3l-7.77,16.42h-3.87l7.94-16.31H553Z" transform="translate(0 0)"/><path class="cls-2" d="M560,439.45a7.65,7.65,0,0,1,2.32.34,5.85,5.85,0,0,1,1.9,1,4.62,4.62,0,0,1,1.28,1.59,4.88,4.88,0,0,1,.47,2.18,5.13,5.13,0,0,1-.73,2.75,3.72,3.72,0,0,1-2.21,1.62V449a3.76,3.76,0,0,1,1.33.56,4.95,4.95,0,0,1,2.21,4.16,5.81,5.81,0,0,1-.52,2.54,5.45,5.45,0,0,1-1.4,1.83,5.86,5.86,0,0,1-2.09,1.11,9,9,0,0,1-5.12,0,5.87,5.87,0,0,1-2.07-1.11,5.43,5.43,0,0,1-1.4-1.83,5.8,5.8,0,0,1-.52-2.54,4.93,4.93,0,0,1,2.21-4.16A3.74,3.74,0,0,1,557,449v-.05a3.72,3.72,0,0,1-2.21-1.62,5.12,5.12,0,0,1-.73-2.75,4.87,4.87,0,0,1,.47-2.18,4.62,4.62,0,0,1,1.28-1.59,5.85,5.85,0,0,1,1.9-1A7.65,7.65,0,0,1,560,439.45Zm0,10.79a3.67,3.67,0,0,0-1.26.22,3,3,0,0,0-1,.63,3.12,3.12,0,0,0-.7,1,2.86,2.86,0,0,0-.26,1.22,3,3,0,0,0,.92,2.27,3.62,3.62,0,0,0,4.7,0,3,3,0,0,0,.92-2.27,2.86,2.86,0,0,0-.26-1.22,3.12,3.12,0,0,0-.7-1,3,3,0,0,0-1-.63A3.67,3.67,0,0,0,560,450.24Zm0-8a2.52,2.52,0,0,0-2,.77,2.68,2.68,0,0,0-.7,1.87,2.76,2.76,0,0,0,.71,1.94,2.51,2.51,0,0,0,1.95.78,2.58,2.58,0,0,0,1-.21,2.69,2.69,0,0,0,.85-.58,2.66,2.66,0,0,0,.58-.87,2.77,2.77,0,0,0,.21-1.07,2.6,2.6,0,0,0-2.66-2.64Z" transform="translate(0 0)"/><path class="cls-1" d="M556.13,515.69l4.67-7.2-.06-.05a2.57,2.57,0,0,1-.81.25,6.27,6.27,0,0,1-1,.08,5.56,5.56,0,0,1-2.36-.49,5.79,5.79,0,0,1-1.85-1.35,6,6,0,0,1-1.21-2,6.69,6.69,0,0,1-.43-2.39,7,7,0,0,1,.52-2.75,6.08,6.08,0,0,1,1.44-2.1,6.35,6.35,0,0,1,2.2-1.33,8,8,0,0,1,2.76-.47,8.29,8.29,0,0,1,2.79.45,6.29,6.29,0,0,1,2.2,1.3,5.81,5.81,0,0,1,1.43,2.09,7.23,7.23,0,0,1,.51,2.77,7.33,7.33,0,0,1-.51,2.79,17.18,17.18,0,0,1-1.3,2.54l-5,7.83Zm7.33-13.1a3.53,3.53,0,0,0-1-2.51,3.55,3.55,0,0,0-5.78,1.13,3.55,3.55,0,1,0,6.81,1.39Z" transform="translate(0 0)"/></svg>