<svg id="Layer_1" data-name="Layer 1" xmlns="http://www.w3.org/2000/svg" viewBox="0 0 114.44 108.84"><defs><style>.cls-1{fill:#d8267d;}</style></defs><title>btn_115x109_star3_B</title><polygon points="70.73 41.57 57.22 0 43.71 41.57 0 41.57 35.36 67.27 21.86 108.83 57.22 83.14 92.58 108.83 79.08 67.27 114.44 41.57 70.73 41.57"/><path class="cls-1" d="M61.23,58.63a4.11,4.11,0,0,1,1.09.55,3.91,3.91,0,0,1,.85.81,3.59,3.59,0,0,1,.54,1,3.32,3.32,0,0,1,.19,1.09,4.56,4.56,0,0,1-.57,2.34A4.88,4.88,0,0,1,61.82,66a6.39,6.39,0,0,1-2.09.91,9.86,9.86,0,0,1-2.35.29A10.07,10.07,0,0,1,55,67a7.08,7.08,0,0,1-2.11-.87,6.48,6.48,0,0,1-1.67-1.5,5.54,5.54,0,0,1-1-2.16l4.88-1.14a2.09,2.09,0,0,0,.65,1.06,1.87,1.87,0,0,0,1.33.48,2.12,2.12,0,0,0,.46-.05A1.45,1.45,0,0,0,58,62.6a1,1,0,0,0,.33-.32,1,1,0,0,0-.48-1.43,5,5,0,0,0-1.65-.22h-1.5V57h1.67a3.27,3.27,0,0,0,1.34-.23.88.88,0,0,0,.51-.89.72.72,0,0,0-.4-.7A1.84,1.84,0,0,0,57,55a1.67,1.67,0,0,0-1,.34,1.49,1.49,0,0,0-.57,1l-4.86-1a6.15,6.15,0,0,1,1.12-2.14,6,6,0,0,1,1.66-1.4,7.12,7.12,0,0,1,2-.76,9.88,9.88,0,0,1,2.1-.23,9.49,9.49,0,0,1,2.13.25,6.54,6.54,0,0,1,2,.81A4.73,4.73,0,0,1,63,53.28a3.74,3.74,0,0,1,.57,2.1,3,3,0,0,1-.69,2.1,3.51,3.51,0,0,1-1.68,1.07Z" transform="translate(-0.28 -0.08)"/></svg>