<svg id="Layer_1" data-name="Layer 1" xmlns="http://www.w3.org/2000/svg" viewBox="0 0 114.44 108.84"><defs><style>.cls-1{fill:#d8267d;}</style></defs><title>btn_115x109_star2_B</title><polygon points="92.58 108.83 57.22 83.14 21.86 108.83 35.36 67.27 0 41.57 43.71 41.57 57.22 0 70.73 41.57 114.44 41.57 79.08 67.27 92.58 108.83"/><path class="cls-1" d="M57.11,57.8a2.81,2.81,0,0,0,.62-.64,1.26,1.26,0,0,0,.24-.73,1.16,1.16,0,0,0-.28-.77,1.07,1.07,0,0,0-.87-.33,1.31,1.31,0,0,0-1.06.51,2.26,2.26,0,0,0-.46,1.36l-5-.57A6.47,6.47,0,0,1,51.11,54a6.1,6.1,0,0,1,1.59-1.83,6.49,6.49,0,0,1,2.13-1.07,8.69,8.69,0,0,1,2.43-.34,9.28,9.28,0,0,1,2.28.29,6.21,6.21,0,0,1,2,.89,4.52,4.52,0,0,1,2,3.91,5.24,5.24,0,0,1-.25,1.71,4.69,4.69,0,0,1-.68,1.31,6.43,6.43,0,0,1-1,1q-.54.46-1.13.88l-2.29,1.63h5.37V66.8H51V62.73Z" transform="translate(-0.28 -0.08)"/></svg>