<svg id="Layer_1" data-name="Layer 1" xmlns="http://www.w3.org/2000/svg" viewBox="0 0 287 102"><defs><style>.cls-1{fill:#d9417d;}</style></defs><title>btn_287x102_bellotaLogo</title><path class="cls-1" d="M74.93,56.75a13.08,13.08,0,0,1,3.34,1.33,11.94,11.94,0,0,1,2.93,2.31A10.46,10.46,0,0,1,84,67.68a12.72,12.72,0,0,1-1.6,6.62,12.86,12.86,0,0,1-4.22,4.34,18.1,18.1,0,0,1-6,2.38,33.38,33.38,0,0,1-6.91.71H43.41V33.67H63.22a47.29,47.29,0,0,1,6.23.44,20.6,20.6,0,0,1,6.09,1.76,12,12,0,0,1,4.63,3.87A11.18,11.18,0,0,1,82,46.43a10.12,10.12,0,0,1-1.94,6.38,11.54,11.54,0,0,1-5.14,3.74ZM58.53,46.23v5.9h4.36a4.66,4.66,0,0,0,2.79-.78,2.76,2.76,0,0,0,1.09-2.41,2.21,2.21,0,0,0-1.16-2,6,6,0,0,0-3.07-.68Zm0,16.29V69h4.83a5.22,5.22,0,0,0,3.1-.85,2.86,2.86,0,0,0,1.19-2.48,2.35,2.35,0,0,0-.51-1.56,3.85,3.85,0,0,0-1.26-1,5.58,5.58,0,0,0-1.6-.51,10,10,0,0,0-1.6-.14Z" transform="translate(0.18 -0.18)"/><path class="cls-1" d="M127.09,64.22c0,.59,0,1.19,0,1.8s-.06,1.12-.1,1.53h-24.1a3.06,3.06,0,0,0,.65,1.7,5.55,5.55,0,0,0,1.43,1.29,6.57,6.57,0,0,0,1.91.81,8.58,8.58,0,0,0,2.14.27,7.71,7.71,0,0,0,3.64-.78,6.92,6.92,0,0,0,2.21-1.73L126,74.74a16.41,16.41,0,0,1-6.91,6.11,23.42,23.42,0,0,1-10.52,2.24A23.79,23.79,0,0,1,101,81.87a19.27,19.27,0,0,1-6.5-3.63,17.74,17.74,0,0,1-4.53-6,19.33,19.33,0,0,1-1.7-8.35,19.62,19.62,0,0,1,1.57-8,17.92,17.92,0,0,1,4.26-6A19.11,19.11,0,0,1,100.43,46a22.17,22.17,0,0,1,7.8-1.36,19.68,19.68,0,0,1,7.69,1.46,17.53,17.53,0,0,1,6,4.07,18.33,18.33,0,0,1,3.85,6.21A21.89,21.89,0,0,1,127.09,64.22Zm-13.55-5.09A4,4,0,0,0,112.14,56a5.55,5.55,0,0,0-3.78-1.22,5.45,5.45,0,0,0-4,1.43,5.2,5.2,0,0,0-1.63,2.92Z" transform="translate(0.18 -0.18)"/><path class="cls-1" d="M132.6,30.41h16.07V81.73H132.6Z" transform="translate(0.18 -0.18)"/><path class="cls-1" d="M155.89,30.41H172V81.73H155.89Z" transform="translate(0.18 -0.18)"/><path class="cls-1" d="M218.6,63.74A19.33,19.33,0,0,1,216.93,72,18.12,18.12,0,0,1,212.44,78a19.47,19.47,0,0,1-6.54,3.77,24,24,0,0,1-15.52,0,19.08,19.08,0,0,1-6.5-3.77A18.28,18.28,0,0,1,179.41,72a19.3,19.3,0,0,1-1.67-8.21,18.94,18.94,0,0,1,1.67-8.11,18,18,0,0,1,4.46-6,19,19,0,0,1,6.5-3.7,24.58,24.58,0,0,1,15.52,0,19.37,19.37,0,0,1,6.54,3.7,17.89,17.89,0,0,1,4.49,6A19,19,0,0,1,218.6,63.74ZM198.1,57.9a5.38,5.38,0,0,0-4.19,1.77,6,6,0,0,0-1.6,4.14A6.05,6.05,0,0,0,194,68.09a5.92,5.92,0,0,0,8.44,0A6.05,6.05,0,0,0,204,63.81a5.83,5.83,0,0,0-1.67-4.14A5.6,5.6,0,0,0,198.1,57.9Z" transform="translate(0.18 -0.18)"/><path class="cls-1" d="M240,82.68q-7.22,0-10.69-3.09T225.81,70V57.22h-5V46h5V38H241v8h7.76v11.2H241v9.51q0,2.58,1.12,3.5a4.77,4.77,0,0,0,3.1.92,9.38,9.38,0,0,0,1.57-.14,12.31,12.31,0,0,0,1.29-.27V81.46a14,14,0,0,1-3.44.88A30.9,30.9,0,0,1,240,82.68Z" transform="translate(0.18 -0.18)"/><path class="cls-1" d="M272,59.06a2.73,2.73,0,0,0-1.12-2.41,5.11,5.11,0,0,0-3-.78,9.53,9.53,0,0,0-4.12.92,16.58,16.58,0,0,0-3.44,2.14l-7.83-7.74a22.72,22.72,0,0,1,7.76-4.82,26.05,26.05,0,0,1,9.26-1.7A21.58,21.58,0,0,1,278,46.09,12.89,12.89,0,0,1,283.31,50,15.1,15.1,0,0,1,286,55.87a30.83,30.83,0,0,1,.78,7.06V81.73H272.59V78.88h-.14a7.49,7.49,0,0,1-3.88,2.92,14.82,14.82,0,0,1-4.9.88,16.11,16.11,0,0,1-4.32-.61,11.84,11.84,0,0,1-4-2,10.53,10.53,0,0,1-3-3.53,11.28,11.28,0,0,1-1.16-5.36,9.2,9.2,0,0,1,1.94-6.08,13.25,13.25,0,0,1,4.94-3.67,24.19,24.19,0,0,1,6.71-1.8,57,57,0,0,1,7.25-.48Zm.14,7.87a17.13,17.13,0,0,0-5.58.75,2.79,2.79,0,0,0-2.11,2.78,2.19,2.19,0,0,0,.34,1.25,2.83,2.83,0,0,0,.88.85,4.2,4.2,0,0,0,1.19.51,5,5,0,0,0,4.8-1.25,5.09,5.09,0,0,0,1.36-3.67V66.93Z" transform="translate(0.18 -0.18)"/><path class="cls-1" d="M44.1,102.18H42.72c-25.53,0-31.74-30.61-32.23-57.75a15.58,15.58,0,0,1,5-30.37H32.3v-2.8a11.11,11.11,0,0,1,22.22,0v2.8H71.33a4.26,4.26,0,1,1,0,8.52H50.25A4.27,4.27,0,0,1,46,18.32V11.26a2.57,2.57,0,0,0-5.13,0v7.06a4.27,4.27,0,0,1-4.27,4.26H15.49A7.08,7.08,0,0,0,15,36.72,4.26,4.26,0,0,1,19,41c0,24,4.15,52.7,23.72,52.7H44.1a4.26,4.26,0,1,1,0,8.52Z" transform="translate(0.18 -0.18)"/></svg>