<svg id="Layer_1" data-name="Layer 1" xmlns="http://www.w3.org/2000/svg" viewBox="0 0 100 114"><defs><style>.cls-1{fill:#17997d;}.cls-2{fill:#22b89a;}</style></defs><title>bt_110x114_jeer</title><path class="cls-1" d="M83.8,30.85,81,28.07V61.5H69.86V28H58.71a5.59,5.59,0,0,1,5.57,5.58V61.5a5.54,5.54,0,0,1-1.62,3.93L44.3,83.81l-3-2.93L47,86.6l13.57,13.75H11.95a12,12,0,0,1-12-12V102.3a12,12,0,0,0,12,12H88a12,12,0,0,0,12-12V47Z" transform="translate(0.04 -0.3)"/><path class="cls-2" d="M88,.3h-76a12,12,0,0,0-12,12V88.35a12,12,0,0,0,12,12h48.6L41.35,80.88a4.2,4.2,0,0,1-1.23-3l.08-.89,2.65-12.74H25.27a5.59,5.59,0,0,1-5.57-5.58l0-.22,0,0V53.14a5.51,5.51,0,0,1,.39-2L28.5,31.44A5.54,5.54,0,0,1,33.63,28H81L100,47V12.3A12,12,0,0,0,88,.3Z" transform="translate(0.04 -0.3)"/><path d="M58.71,28H33.63a5.54,5.54,0,0,0-5.13,3.4L20.08,51.1a5.51,5.51,0,0,0-.39,2v5.33l0,0,0,.22a5.59,5.59,0,0,0,5.57,5.58H42.85L40.21,77l-.08.89a4.2,4.2,0,0,0,1.23,3l3,2.93L62.67,65.43a5.54,5.54,0,0,0,1.62-3.93V33.62A5.59,5.59,0,0,0,58.71,28Z" transform="translate(0.04 -0.3)"/><polygon points="81.04 27.76 69.91 27.75 69.91 61.2 81.05 61.2 81.05 27.77 81.04 27.76"/></svg>