<?xml version="1.0" encoding="utf-8"?>
<!-- Generator: Adobe Illustrator 20.1.0, SVG Export Plug-In . SVG Version: 6.00 Build 0)  -->
<svg version="1.1" id="Layer_1" xmlns="http://www.w3.org/2000/svg" xmlns:xlink="http://www.w3.org/1999/xlink" x="0px" y="0px"
	 viewBox="0 0 114.4 108.8" style="enable-background:new 0 0 114.4 108.8;" xml:space="preserve">
<style type="text/css">
	.st0{fill:#FFFFFF;}
	.st1{fill:#D8267D;}
</style>
<title>btn_115x109_star3_B</title>
<polygon class="st0" points="70.7,41.6 57.2,0 43.7,41.6 0,41.6 35.4,67.3 21.9,108.8 57.2,83.1 92.6,108.8 79.1,67.3 114.4,41.6 
	"/>
<path class="st1" d="M61,58.5c0.4,0.1,0.8,0.3,1.1,0.5c0.3,0.2,0.6,0.5,0.8,0.8c0.2,0.3,0.4,0.6,0.5,1c0.1,0.4,0.2,0.7,0.2,1.1
	c0,0.8-0.2,1.6-0.6,2.3c-0.4,0.6-0.9,1.2-1.5,1.6c-0.6,0.4-1.3,0.7-2.1,0.9c-0.8,0.2-1.6,0.3-2.3,0.3c-0.8,0-1.6,0-2.4-0.2
	c-0.7-0.2-1.5-0.5-2.1-0.9c-0.6-0.4-1.2-0.9-1.7-1.5c-0.5-0.6-0.8-1.4-1-2.2l4.9-1.1c0.1,0.4,0.3,0.8,0.7,1.1
	c0.4,0.3,0.8,0.5,1.3,0.5c0.2,0,0.3,0,0.5,0c0.2,0,0.3-0.1,0.5-0.2c0.1-0.1,0.2-0.2,0.3-0.3c0.3-0.5,0.1-1.1-0.4-1.4
	c0,0-0.1,0-0.1-0.1c-0.5-0.2-1.1-0.2-1.7-0.2h-1.5v-3.6h1.7c0.5,0,0.9-0.1,1.3-0.2c0.3-0.2,0.5-0.5,0.5-0.9c0-0.3-0.1-0.6-0.4-0.7
	c-0.3-0.1-0.5-0.2-0.8-0.2c-0.4,0-0.7,0.1-1,0.3c-0.3,0.2-0.5,0.6-0.6,1l-4.9-1c0.2-0.8,0.6-1.5,1.1-2.1c0.5-0.6,1-1,1.7-1.4
	c0.6-0.4,1.3-0.6,2-0.8c0.7-0.2,1.4-0.2,2.1-0.2c0.7,0,1.4,0.1,2.1,0.2c0.7,0.2,1.4,0.4,2,0.8c0.6,0.4,1.1,0.8,1.4,1.4
	c0.4,0.6,0.6,1.4,0.6,2.1c0,0.8-0.2,1.5-0.7,2.1C62.2,57.9,61.6,58.3,61,58.5L61,58.5z"/>
</svg>
