<svg id="Layer_1" data-name="Layer 1" xmlns="http://www.w3.org/2000/svg" viewBox="0 0 100 114"><defs><style>.cls-1{fill:#17997d;}.cls-2{fill:#22b89a;}</style></defs><title>bt_110x114_clap</title><path class="cls-1" d="M48.39,84.44c.3,0,.6,0,.91,0s.63,0,.95,0A10,10,0,0,1,48.39,84.44Z" transform="translate(0.15 -0.3)"/><path class="cls-1" d="M82.68,54.14a3.69,3.69,0,0,1-.57,1.51A3.69,3.69,0,0,0,82.68,54.14Z" transform="translate(0.15 -0.3)"/><path class="cls-1" d="M80.93,41.9a3.69,3.69,0,0,1-.57,1.51A3.69,3.69,0,0,0,80.93,41.9Z" transform="translate(0.15 -0.3)"/><path d="M56.62,26a5.66,5.66,0,0,1,2.32-1.39,3.69,3.69,0,0,0-6.3-2.25l-16,16c.36,1.3.87,3.19,1.63,6Z" transform="translate(0.15 -0.3)"/><path d="M24.86,34.06l0-2,2,0,1.93,0c-.13-.48-.22-.77-.22-.78A3,3,0,0,0,27.82,30a2.93,2.93,0,0,0-1.89-.87c-.1,0-4.46-.09-4.46-.09l-.23,27.69a9.88,9.88,0,0,0,2.9,7.07l.82.82a12,12,0,0,1-.34-2.85Z" transform="translate(0.15 -0.3)"/><path d="M66.37,30c0,.07,0,.14,0,.21L68,28.58a5.66,5.66,0,0,1,2.32-1.39A3.69,3.69,0,0,0,64,24.95l-.26.26a5.76,5.76,0,0,1,.94.75A5.68,5.68,0,0,1,66.37,30Z" transform="translate(0.15 -0.3)"/><path d="M82.65,52.9a3.69,3.69,0,0,0-.54-1.33,3.74,3.74,0,0,0-.48-.58,3.69,3.69,0,0,0-5.19,0l-.06,0L66.77,60.6,65,58.86,76.94,46.93,79.88,44a3.74,3.74,0,0,0,.48-.58,3.59,3.59,0,0,0,.21-3.68,3.64,3.64,0,0,0-.21-.41,3.74,3.74,0,0,0-.48-.58,3.68,3.68,0,0,0-1-.69c-.08,0-.16-.09-.24-.13a3.7,3.7,0,0,0-3.43.34,3.76,3.76,0,0,0-.53.43l-.06,0-2,2L59.78,53.61,58,51.86,64.9,45l9.74-9.74a3.69,3.69,0,0,0-2.72-6.33l-.25,0a3.69,3.69,0,0,0-.56.1l-.27.08a3.67,3.67,0,0,0-.53.23l-.23.12a3.72,3.72,0,0,0-.63.49l-.05,0L52.79,46.61,51,44.86,63.28,32.62a3.71,3.71,0,0,0-4.66-5.72,3.76,3.76,0,0,0-.53.43l-.06,0L37.21,48.2l-.29-1.09-.1-.36-.41-1.53-.49-1.82-.45-1.65L35,40.15,35,40l-.23-.85c-.43-1.59-.76-2.76-.77-2.79A3,3,0,0,0,33.21,35a2.93,2.93,0,0,0-1.89-.87s-1,0-2-.05l-2.5,0-.23,27.69h0q0,.5,0,1t.14,1a9.94,9.94,0,0,0,2.72,5.11l1.08,1.08,8,8,3.71,3.71h0a9.9,9.9,0,0,0,.75.68,9.81,9.81,0,0,0,4.35,2c.33.06.66.11,1,.14a10,10,0,0,0,1.86,0q.47,0,.94-.14a9.82,9.82,0,0,0,5.1-2.71L81.63,56.23a3.74,3.74,0,0,0,.48-.58,3.69,3.69,0,0,0,.57-1.51,3.72,3.72,0,0,0,0-1.24Z" transform="translate(0.15 -0.3)"/><path class="cls-1" d="M82.9,42.06l-2.33-2.33A3.68,3.68,0,0,1,79.88,44l-2.94,2.94L65,58.86l1.75,1.75L76.39,51l.06,0a3.69,3.69,0,0,1,5.19,0,3.74,3.74,0,0,1,.48.58,3.7,3.7,0,0,1,.61,2,3.74,3.74,0,0,1,0,.53,3.69,3.69,0,0,1-.57,1.51,3.74,3.74,0,0,1-.48.58L56.29,81.59a9.89,9.89,0,0,1-.75.68,9.81,9.81,0,0,1-4.35,2q-.47.09-.94.14t-.95,0c-.3,0-.6,0-.91,0s-.66-.07-1-.14a9.81,9.81,0,0,1-5.1-2.71L47,86.25,61,100.35H11.85a12,12,0,0,1-12-12v13.95a12,12,0,0,0,12,12h76a12,12,0,0,0,12-12V59h0Z" transform="translate(0.15 -0.3)"/><path class="cls-1" d="M48.39,84.44c-.33,0-.66-.07-1-.14C47.73,84.36,48.06,84.41,48.39,84.44Z" transform="translate(0.15 -0.3)"/><path class="cls-2" d="M87.85.3h-76a12,12,0,0,0-12,12v76a12,12,0,0,0,12,12H61L42.3,81.59h0L29.54,68.83a9.94,9.94,0,0,1-2.72-5.11q-.09-.48-.14-1t0-1h0l.23-27.69,2.5,0c1,0,1.91,0,2,.05a2.93,2.93,0,0,1,1.89.87A3,3,0,0,1,34,36.36s.34,1.19.77,2.79L35,40l0,.15.44,1.62.45,1.65.49,1.82.41,1.53.1.36.29,1.09L58,27.37l.06,0a3.76,3.76,0,0,1,.53-.43,3.71,3.71,0,0,1,4.66,5.72L51,44.86l1.75,1.75L69.4,30l.05,0a3.72,3.72,0,0,1,.63-.49l.23-.12a3.67,3.67,0,0,1,.53-.23l.27-.08a3.68,3.68,0,0,1,.56-.1l.25,0h.25a3.72,3.72,0,0,1,2.48,6.32L58,51.86l1.75,1.75L74.64,38.74l.06,0a3.76,3.76,0,0,1,.53-.43,3.87,3.87,0,0,1,3.43-.34c.08,0,.16.09.24.13a3.68,3.68,0,0,1,1,.69,3.74,3.74,0,0,1,.48.58,3.62,3.62,0,0,1,.21.41,3.7,3.7,0,0,1,.33.93,3.7,3.7,0,0,0-.33-.93l2.33,2.33L99.85,59V12.3A12,12,0,0,0,87.85.3Zm-61,31.77-2,0,0,2-.23,27.69A12,12,0,0,0,25,64.6l-.82-.82a9.88,9.88,0,0,1-2.9-7.07L21.48,29s4.35.05,4.46.09a2.93,2.93,0,0,1,1.89.87,3,3,0,0,1,.77,1.33s.09.3.22.78ZM56.62,26,38.24,44.35c-.76-2.79-1.27-4.68-1.63-6l16-16a3.69,3.69,0,0,1,6.3,2.25A5.66,5.66,0,0,0,56.62,26ZM68,28.58,66.36,30.2c0-.07,0-.14,0-.21a5.68,5.68,0,0,0-1.67-4,5.76,5.76,0,0,0-.94-.75l.26-.26a3.69,3.69,0,0,1,6.3,2.25A5.66,5.66,0,0,0,68,28.58Z" transform="translate(0.15 -0.3)"/></svg>