<svg id="Layer_1" data-name="Layer 1" xmlns="http://www.w3.org/2000/svg" viewBox="0 0 100 114"><defs><style>.cls-1{fill:#22b89a;}.cls-2{fill:#17997d;}</style></defs><title>bt_110x114_gamestart</title><path class="cls-1" d="M88,0H12A12,12,0,0,0,0,12V88.05a12,12,0,0,0,12,12H50L25.44,75.45l0-19.78L67.76,50,25.41,44.38l0-19.78L84.71,50,100,65.33V12A12,12,0,0,0,88,0Z"/><polygon points="25.43 24.6 25.41 44.38 67.76 50.03 25.41 55.68 25.43 75.45 84.71 50.03 25.43 24.6"/><path class="cls-2" d="M84.71,50,25.44,75.45,50,100.05H12a12,12,0,0,1-12-12V102a12,12,0,0,0,12,12H88a12,12,0,0,0,12-12V65.33Z"/></svg>