<?xml version="1.0" encoding="utf-8"?>
<!-- Generator: Adobe Illustrator 20.1.0, SVG Export Plug-In . SVG Version: 6.00 Build 0)  -->
<svg version="1.1" id="Layer_1" xmlns="http://www.w3.org/2000/svg" xmlns:xlink="http://www.w3.org/1999/xlink" x="0px" y="0px"
	 viewBox="0 0 114.4 108.8" style="enable-background:new 0 0 114.4 108.8;" xml:space="preserve">
<style type="text/css">
	.st0{fill:#FFFFFF;}
	.st1{fill:#D8267D;}
</style>
<title>btn_115x109_star2_B</title>
<polygon class="st0" points="92.6,108.8 57.2,83.1 21.9,108.8 35.4,67.3 0,41.6 43.7,41.6 57.2,0 70.7,41.6 114.4,41.6 79.1,67.3 
	"/>
<path class="st1" d="M56.8,57.7c0.2-0.2,0.4-0.4,0.6-0.6c0.2-0.2,0.2-0.5,0.2-0.7c0-0.3-0.1-0.6-0.3-0.8c-0.2-0.2-0.5-0.4-0.9-0.3
	c-0.4,0-0.8,0.2-1.1,0.5c-0.3,0.4-0.5,0.9-0.5,1.4l-5-0.6c0.1-0.9,0.4-1.8,0.8-2.6c0.4-0.7,0.9-1.3,1.6-1.8c0.6-0.5,1.4-0.8,2.1-1.1
	c0.8-0.2,1.6-0.3,2.4-0.3c0.8,0,1.5,0.1,2.3,0.3c0.7,0.2,1.4,0.5,2,0.9c1.3,0.9,2.1,2.3,2,3.9c0,0.6-0.1,1.2-0.2,1.7
	c-0.2,0.5-0.4,0.9-0.7,1.3c-0.3,0.4-0.6,0.7-1,1c-0.4,0.3-0.7,0.6-1.1,0.9l-2.3,1.6h5.4v4.4H50.7v-4.1L56.8,57.7z"/>
</svg>
