<svg id="Layer_1" data-name="Layer 1" xmlns="http://www.w3.org/2000/svg" viewBox="0 0 100 114"><defs><style>.cls-1{fill:#22b89a;}.cls-2{fill:#17997d;}</style></defs><title>bt_110x114_out</title><path class="cls-1" d="M88,0H12A12,12,0,0,0,0,12V88a12,12,0,0,0,12,12H59.52L29.76,70.28h0A28.62,28.62,0,1,1,70.23,29.78h0L100,59.55V12A12,12,0,0,0,88,0Zm1.62,22L88.2,23.39,84,19.14l-4.24,4.24L78.3,22l4.24-4.24-3.78-3.78-.47-.47,1.41-1.41,1.88,1.88L84,16.31l2.36-2.36,1.88-1.88,1.41,1.41-.52.52-3.72,3.72Z"/><path class="cls-1" d="M30.7,50A19,19,0,0,0,33.47,60L59.94,33.49A18.94,18.94,0,0,0,50,30.72,19.33,19.33,0,0,0,30.7,50Z"/><path class="cls-2" d="M70.24,29.77h0A28.62,28.62,0,1,1,29.77,70.27h0l29.76,29.77H12A12,12,0,0,1,0,88V102a12,12,0,0,0,12,12H88a12,12,0,0,0,12-12V59.55Z"/><path class="cls-2" d="M69.3,50a19,19,0,0,0-2.77-9.95L40.06,66.56A18.94,18.94,0,0,0,50,69.34,19.33,19.33,0,0,0,69.3,50Z"/><path d="M50,21.39a28.67,28.67,0,1,0,20.23,8.4A28.67,28.67,0,0,0,50,21.39ZM30.7,50A19.33,19.33,0,0,1,50,30.72a18.94,18.94,0,0,1,9.94,2.78L33.47,60A19,19,0,0,1,30.7,50ZM50,69.34a18.94,18.94,0,0,1-9.94-2.78L66.53,40.08A19,19,0,0,1,69.3,50,19.33,19.33,0,0,1,50,69.34Z"/><polygon points="89.09 14 89.62 13.48 88.2 12.07 86.32 13.95 83.96 16.31 81.6 13.95 79.72 12.07 78.3 13.48 78.77 13.95 82.55 17.73 78.3 21.97 79.72 23.39 83.96 19.14 88.2 23.39 89.62 21.97 85.37 17.73 89.09 14"/></svg>